<?xml version="1.0" standalone="no"?>
<!DOCTYPE svg PUBLIC "-//W3C//DTD SVG 20010904//EN"
 "http://www.w3.org/TR/2001/REC-SVG-20010904/DTD/svg10.dtd">
<svg version="1.0" xmlns="http://www.w3.org/2000/svg"
 width="700.000000pt" height="700.000000pt" viewBox="0 0 700.000000 700.000000"
 preserveAspectRatio="xMidYMid meet">
<metadata>
Created by potrace 1.14, written by Peter Selinger 2001-2017
</metadata>
<g transform="translate(0.000000,700.000000) scale(0.100000,-0.100000)"
fill="#000000" stroke="none">
<path d="M3377 6124 c-1 -1 -51 -5 -112 -8 -60 -4 -119 -9 -130 -11 -11 -3
-38 -7 -60 -10 -492 -67 -909 -268 -1235 -595 -128 -127 -222 -248 -317 -405
-138 -229 -286 -632 -327 -892 -33 -209 -43 -295 -51 -433 -10 -171 -5 -507
10 -630 2 -19 7 -62 11 -95 6 -65 9 -82 24 -165 5 -30 12 -68 15 -85 67 -386
271 -846 504 -1135 134 -166 298 -312 486 -432 119 -77 198 -116 420 -209 96
-40 343 -100 475 -115 30 -3 64 -8 75 -10 78 -16 358 -22 530 -11 110 7 132
10 235 27 30 5 73 12 94 16 22 3 50 10 63 15 13 5 23 7 23 4 0 -2 18 2 40 10
22 8 41 14 43 14 1 -1 22 5 47 12 25 7 50 13 56 15 7 1 65 23 130 49 617 244
1047 728 1273 1429 44 139 94 361 111 501 6 50 13 101 15 115 26 145 25 686
-1 875 -20 149 -37 256 -44 285 -5 19 -11 49 -14 65 -19 104 -82 303 -147 457
-124 296 -277 527 -490 739 -333 332 -732 517 -1279 593 -94 13 -463 29 -473
20z m288 -1168 c174 -31 300 -98 430 -231 100 -102 176 -216 235 -352 43 -100
94 -281 110 -393 6 -41 13 -86 16 -100 22 -136 22 -571 0 -710 -2 -14 -7 -43
-10 -65 -14 -102 -19 -126 -41 -215 -94 -378 -299 -672 -545 -783 -132 -59
-197 -72 -365 -72 -147 0 -183 5 -281 36 -206 67 -371 213 -491 434 -92 170
-162 400 -188 615 -3 30 -9 80 -13 110 -15 124 -6 630 13 700 2 8 6 32 9 53
75 508 346 871 721 963 102 26 286 30 400 10z"/>
</g>
</svg>
